<svg xmlns="http://www.w3.org/2000/svg" viewBox="0 0 114.48 17.71"><g data-name="レイヤー 2"><g data-name="レイヤー 1"><path d="M99.88 0h14.6v17.71h-14.6zM0 4.26V2.88h1.35v1.38h1.38v1.37h1.35V7h1.35v1.37h1.38v1.37H5.43v1.36H4.08v1.38H2.73v1.37H1.35v-1.37h1.38V11.1h1.35V9.74h1.35V8.37H4.08V7H2.73V5.63H1.35V4.26zm0 11v-1.41h1.35v1.36zm12.13-11V2.88h6.8v5.49h2.73V4.26H23v5.48h1.36v1.36h1.37v1.38h-1.36V11.1H23v2.75h-1.34v1.36h-1.37v-1.36h1.37V9.74h-4.08v2.74h-1.34v1.37h-1.39v1.36h-2.72v-1.36h2.72v-1.37h1.39V9.74H13.5v1.36h-1.37v2.75h-1.36V11.1h1.36V9.74h1.37V8.37h4.08V4.26zm5.45 12.33v-1.38h2.71v1.38zm10.79-2.74v2.74H27v-2.74zm0 0V11.1h1.35v2.75zm4.08-2.75h-2.73V8.37h1.36v1.37h1.37zm0-2.73h-1.37V5.63h1.37zm0-2.74V2.88h1.35v2.75zm2.71 4.11h-2.71V8.37h2.71zm1.37 5.47h-1.37V9.74h1.37zm2.71 1.38h-2.71v-1.38h2.71zm0-1.38v-2.73h1.37v2.73zm1.27-9.58V4.26H46V1.52h1.37v2.74H50v1.37h-4v2.74h-1.41v2.73h-1.35v2.75h-1.38V11.1h1.38V8.37h1.35V5.63zm10.89 9.58v-2.73h-4.08v2.73H46v-2.73h1.37V11.1h4.03V7h1.35v5.49h1.36v1.37h1.37v1.36h-1.37v-1.37h-1.36v1.36zm0 1.38h-4.08v-1.38h4.08zm0-12.33V2.88h2.71v1.38h1.37v1.37h-1.37V4.26zm6.7 8.22h-1.37V8.37h1.37zm4.08-2.74V5.63h-1.37V7h-1.35v1.37H58.1V7h1.36V5.63h1.35V4.26h6.81v1.37H69V7h-1.38V5.63h-4.08v4.11zm-1.37 4.11H58.1v-1.37h2.71zm0-1.37V9.74h1.37v2.74zm4.08 2.73v-1.36h2.73v1.36zm2.73-1.36v-1.37H69v1.37zM69 12.48V7h1.38v5.49zm2.6 2.73v-1.36h10.89V5.63H71.6V4.26h12.24v12.33h-1.35v-1.38zm14.87-6.84V7h1.37v1.37h10.87v1.37H87.84V8.37z" fill="#231815"/><path d="M104 8.37v8.22h-1.36V1.52H104V7h2.72v1.37h2.71v1.37h2.73v1.36h-2.76V9.74h-2.71V8.37zm4.08-4.11V2.88h1.35v1.38h1.37v1.37h-1.4V4.26zm2.72-1.38V1.52h1.36v1.36h1.35v1.38h-1.35V2.88z" fill="#fff"/></g></g></svg>