<svg viewBox="0 0 229.11 64.16" xmlns="http://www.w3.org/2000/svg"><clipPath id="a"><path d="M88.89 49.4c-6.63 1.05-8.53-3.58-8.61-3.78a1.67 1.67 0 01.88-2.2 1.76 1.76 0 012.24 1c.09.21 1.14 2.31 5 1.71s4.18-2.92 4.21-3.19a1.66 1.66 0 011.77-1.55 1.69 1.69 0 011.57 1.79c-.04.19-.43 5.18-7.06 6.22z"/></clipPath><ellipse cx="90.42" cy="61.61" fill="#231815" opacity=".1" rx="21.05" ry="2.55"/><rect fill="#ffe200" height="51.08" rx="7" transform="rotate(-8.96 86.32 33.28)" width="42.71" x="64.99" y="7.73"/><rect fill="#fff" height="9.63" rx="4.82" transform="matrix(.99 -.16 .16 .99 -3.98 13.78)" width="32.24" x="69.86" y="27.46"/><g fill="#231815"><circle cx="77.91" cy="33.54" r="2.51"/><circle cx="94.87" cy="30.87" r="2.51"/><path d="M88.89 49.4c-6.63 1.05-8.53-3.58-8.61-3.78a1.67 1.67 0 01.88-2.2 1.76 1.76 0 012.24 1c.09.21 1.14 2.31 5 1.71s4.18-2.92 4.21-3.19a1.66 1.66 0 011.77-1.55 1.69 1.69 0 011.57 1.79c-.04.19-.43 5.18-7.06 6.22z"/></g><g clip-path="url(#a)"><ellipse cx="88.65" cy="49.23" fill="#fff" rx="6.07" ry="1.88" transform="rotate(-8.96 88.605 49.19)"/></g><circle cx="39.84" cy="7.67" fill="#e8382f" r="7.3"/><path d="M39.84 16.65A9 9 0 0131.17 10H5.91a5.92 5.92 0 000 11.83h28.16v11l-18.26 18.3a5.91 5.91 0 107.89 8.8l.12-.11.06-.07 20.19-20.19.45-.47a5.94 5.94 0 001.35-3.52V15.93a6.06 6.06 0 00-.19-1.48 8.91 8.91 0 01-5.84 2.2z" fill="#e8382f"/><circle cx="149.66" cy="7.3" fill="#00a0e9" r="7.3"/><circle cx="165.94" cy="7.3" fill="#00a0e9" r="7.3"/><path d="M166.27 16.27h-.33a9 9 0 01-8.14-5.2A9 9 0 01141.1 10h-3.75a4.93 4.93 0 00-.55 0h-.54l-.24.06-.25.06-.28.08h-.14a5.87 5.87 0 00-2.7 2l-10 10a5.91 5.91 0 107.21 9.36l.08.08 9.85-9.89h14.6v11.01L136.18 51a5.91 5.91 0 007.14 9.41l.06.06.74-.72 20.54-20.52.14-.14V39a5.87 5.87 0 001.42-3.59v-.06a1.21 1.21 0 000-.19V16.27z" fill="#00a0e9"/><path d="M203 14.88h-.09a5.92 5.92 0 00-11.74 1 5.78 5.78 0 000 .58v26.67l-7.67 7.67a5.92 5.92 0 003.82 10.43 5.84 5.84 0 003.38-1.06l.08.08 10.49-10.49c.13-.13.25-.27.37-.41l.13-.17.07-.09.12-.17a2.9 2.9 0 00.19-.29l-.88-.57.91.52.07-.12.2-.4v-.07a4.37 4.37 0 00.18-.46c0-.16.1-.32.14-.48v-.12a6.16 6.16 0 00.14-1.26V15.93zm26.08 29.68a5.79 5.79 0 00-.3-1.38 5.9 5.9 0 00-6.16-3.93 5.82 5.82 0 00-3.2 1.33c-.17.14-.33.29-.49.45v-25.1a5.92 5.92 0 10-11.83 0v39.38a5.93 5.93 0 005.9 5.92h.6a6 6 0 002.77-1l.09.08 11.09-11.11.23-.27a5.91 5.91 0 001.3-4.37z" fill="#22ac38"/></svg>