<svg viewBox="0 0 432.73 80.86" xmlns="http://www.w3.org/2000/svg"><clipPath id="a"><path d="M88.89 60c-6.63 1-8.53-3.59-8.61-3.79a1.68 1.68 0 01.88-2.2 1.76 1.76 0 012.24 1c.09.21 1.14 2.3 5 1.7s4.18-2.92 4.21-3.18A1.65 1.65 0 0194.35 52a1.67 1.67 0 011.57 1.79c-.01.21-.4 5.21-7.03 6.21z"/></clipPath><rect fill="#367294" height="71.68" rx="11.02" width="138.8" x="241.54" y="7.06"/><ellipse cx="90.42" cy="72.23" fill="#231815" opacity=".1" rx="21.05" ry="2.55"/><rect fill="#ffe200" height="51.08" rx="7" transform="rotate(-8.96 86.325 43.876)" width="42.71" x="64.99" y="18.34"/><rect fill="#fff" height="9.63" rx="4.82" transform="matrix(.99 -.16 .16 .99 -5.63 13.91)" width="32.24" x="69.86" y="38.07"/><circle cx="77.91" cy="44.16" fill="#231815" r="2.51"/><circle cx="94.87" cy="41.48" fill="#231815" r="2.51"/><path d="M88.89 60c-6.63 1-8.53-3.59-8.61-3.79a1.68 1.68 0 01.88-2.2 1.76 1.76 0 012.24 1c.09.21 1.14 2.3 5 1.7s4.18-2.92 4.21-3.18A1.65 1.65 0 0194.35 52a1.67 1.67 0 011.57 1.79c-.01.21-.4 5.21-7.03 6.21z" fill="#231815"/><g clip-path="url(#a)"><ellipse cx="88.65" cy="59.84" fill="#fff" rx="6.07" ry="1.88" transform="rotate(-8.96 88.604 59.85)"/></g><circle cx="39.84" cy="18.29" fill="#e8382f" r="7.3"/><path d="M39.84 27.26a9 9 0 01-8.67-6.64H5.91a5.92 5.92 0 000 11.83h28.16v11L15.81 61.74a5.92 5.92 0 003.82 10.43 5.82 5.82 0 004.07-1.63l.12-.1a.33.33 0 00.06-.08l20.19-20.18.45-.47a5.91 5.91 0 001.35-3.52V26.54a5.92 5.92 0 00-.19-1.47 9 9 0 01-5.84 2.19z" fill="#e8382f"/><circle cx="149.66" cy="17.92" fill="#00a0e9" r="7.3"/><circle cx="165.94" cy="17.92" fill="#00a0e9" r="7.3"/><path d="M166.27 26.88h-.33a9 9 0 01-8.14-5.19 9 9 0 01-16.7-1.08h-4.5l-.34.05-.24.05-.25.06-.28.09-.14.05a5.85 5.85 0 00-2.7 2l-10 10a5.85 5.85 0 00-2.33 4.69 5.91 5.91 0 009.54 4.67l.08.08 9.85-9.9h14.6v10.92l-18.21 18.26a5.91 5.91 0 007.14 9.37l.06.07.74-.73 20.54-20.51.14-.15v-.08a5.92 5.92 0 001.42-3.6 1.34 1.34 0 000-.2V26.88z" fill="#00a0e9"/><path d="M203 25.49h-.09a5.92 5.92 0 00-11.74 1.05 5.78 5.78 0 000 .58v26.62l-7.67 7.67a5.92 5.92 0 003.82 10.43 5.84 5.84 0 003.38-1.06l.08.08 10.49-10.49c.13-.13.25-.26.37-.4l.13-.18.07-.09.12-.17a2.9 2.9 0 00.19-.29l-.88-.56.91.51.07-.11c.07-.13.13-.27.2-.41v-.07c.07-.15.13-.31.18-.45 0-.15.1-.31.14-.47v-.13a6.08 6.08 0 00.14-1.26V26.54zm26.08 29.69a5.69 5.69 0 00-.3-1.38 5.92 5.92 0 00-9.36-2.61c-.17.14-.33.3-.49.46V26.54a5.92 5.92 0 10-11.83 0v39.38a5.93 5.93 0 005.9 5.92h.6a5.84 5.84 0 002.77-1l.09.08 11.09-11.11.23-.27a5.92 5.92 0 001.3-4.36z" fill="#22ac38"/><path d="M285.14 24.47v-1.23c0-2.52 1.29-4.08 4-4.08 2.34 0 4.3.78 4.3 4.08v1.23h8.77c.95 0 4.2 0 4.2 4.08 0 3.85-2.13 4.41-4.2 4.41h-8.77v5.14h4.58a5.58 5.58 0 015.98 5.76c0 4.64-3.3 11.12-8.16 16.6 1.17.73 7 2.8 8.1 3.36a3.25 3.25 0 012 3.29c0 2.35-1.34 5-4.08 5-2 0-6.77-1.68-12.69-5.82-5.76 3.92-12.35 6.15-14.2 6.15-2.62 0-4.08-2.68-4.08-4.86a3.56 3.56 0 012.8-3.58c1.12-.39 6-2 7-2.4a8.47 8.47 0 002.18-1.12c-3.85-4.58-5.81-8.72-5.81-10.39 0-2.13 2.29-3.53 4.47-3.53 1.4 0 2.13.34 3.41 2.46 2.91 4.87 3.47 5.43 4.53 6.6 4.08-4.19 5.25-7.71 5.25-8.27 0-.84-.67-.95-1.06-.95H278c-1.07 0-4.14 0-4.14-4.08 0-3.75 2.4-4.2 4.14-4.2h7.15V33h-8.72c-2.12 0-2.68-.56-3.18-1.06.39 3.86-1.57 4.86-3.92 4.86h-1.56v6.32a8.12 8.12 0 012.62-.56 3.43 3.43 0 013.36 3.63c0 2.41-1.12 3.24-6 5.26v14c0 6.48-1.51 6.93-8.11 6.93-2.57 0-6 0-6-4.41 0-2.3 1.18-4 3.8-4 1.9 0 2.3 0 2.3-1.51v-7.98a10.13 10.13 0 01-3.25.73c-2.9 0-3.52-3.19-3.52-4.58a3.39 3.39 0 012-3.36 39.07 39.07 0 014.76-1.45v-9.06h-2.63c-1.18 0-3.91 0-3.91-4 0-3.47 2-4 3.91-4h2.63v-5.3c0-1 0-4.19 4-4.19s4 2.85 4 4.19v5.25h1.56c2 0 2.63.56 3 1-.45-3.63 1.17-5.25 4.08-5.25zm51.42 12.63a4.78 4.78 0 01-2.12-.39c-.28 2.12-2.52 5.14-3.8 6.93v25.43c0 1.79-.39 3.58-4 3.58s-3.69-2.57-3.69-3.58V51.91a3 3 0 01-1.73.56c-2.07 0-3.74-2.18-3.74-4.75a5.24 5.24 0 011.67-3.91c1.46-1.4 5.26-5 6.76-7.44 2.19-3.41 2.63-4.08 4.25-4.08a4.23 4.23 0 012.84 1.12c-.11-3.3 1.06-4.25 3.52-4.25h4v-6.37c0-2.79 1.34-3.47 4-3.47 3.24 0 3.35 2.3 3.35 3.47v6.37h4.58c2.74 0 3.53 1.29 3.53 4.19a6.65 6.65 0 01-.34 2.18 3.06 3.06 0 012.57-.83H368c1.73 0 3.58.33 3.58 4.47 0 .83-.17 3.52-2.35 3.52h-1.03v22.69c0 6.93-2 6.93-8.89 6.93-1.73 0-3.13-.06-4-.89a5.59 5.59 0 01-1.4-3.86c0-2.4 1.34-3.41 2.29-3.69a10.6 10.6 0 012.57-.11c1.4 0 1.45-.11 1.45-1.45V42.69h-1.78c-1.4 0-3.86 0-3.86-4a5.35 5.35 0 01.5-2.34c-.39.33-.84.78-2.63.78h-4.58v32c0 2.68-1.23 3.46-3.91 3.46-3.36 0-3.41-2.4-3.41-3.46v-32zm-3-13.42c0 .95 0 2.07-4.53 6.71-1.79 1.85-5 5-6.93 5s-4.14-2.29-4.14-5c0-1.9.67-2.41 2.74-3.86a29.59 29.59 0 006-5.48c1.23-1.34 1.79-1.56 2.91-1.56a4.29 4.29 0 013.99 4.19zM339.08 44a98.53 98.53 0 01-1.29 16.66c-.56 3.4-.84 4.8-3.13 4.8-1 0-3.52-.17-3.52-3.13 0-.67.06-.78.95-5.25a71.39 71.39 0 001.17-11.8c.11-3 .11-3.35.67-3.91a3 3 0 012.35-.78c2.63.03 2.8 1.71 2.8 3.41zm27.33-23c1 0 4.13 0 4.13 4 0 3.8-2.68 4-4.13 4h-6.71a3.68 3.68 0 01-3.63-1.73c-.45 1.56-2.63 1.79-3.13 1.79-1.62 0-1.85-.62-3-3.47-.22-.39-1-2.24-1.17-2.63a3.22 3.22 0 01-.17-1.06c0-1.62 1.84-2.4 3-2.4 1.34 0 2.06.56 4 5 .28-3.08 2.29-3.52 4.08-3.52zM355.9 46.21c.89 6.59 1.45 12.58 1.45 14.25 0 .84 0 3.63-3.35 3.63-3.13 0-3.24-2.29-3.3-4-.11-3.74-.39-8.16-.61-10.79-.12-1-.56-5.31-.56-6s0-2.68 2.85-2.68 2.91 1.17 3.52 5.59z" fill="#fff"/><path d="M274.38 4c0-.72.8-.84 1.11-.84.68 0 .77.3 1.06 1.3.24 0 1.3-.18 1.52-.18s.76 0 .76.86-.5.81-1.77.94c.15.39.25.61.32.79.79-.08 1.4-.14 1.92-.21a2.94 2.94 0 01.64-.08.74.74 0 01.75.83.76.76 0 01-.69.8 15.61 15.61 0 01-1.77.21 6.67 6.67 0 00.92 1.31 1 1 0 01.26.66 1 1 0 01-1 1 1.93 1.93 0 01-.54-.13 9.26 9.26 0 00-3.25-.57c-1.79 0-2.05.6-2.05.91 0 .85 1.71.92 2.54.92a12.68 12.68 0 002.93-.36A4.24 4.24 0 01279 12a.84.84 0 01.82.93c0 .62-.35.84-.87 1a12.43 12.43 0 01-3.47.41c-1.71 0-4.88-.12-4.88-2.53 0-2.1 2.37-2.52 4-2.52a7.86 7.86 0 012 .21 6.21 6.21 0 01-.53-.89c-2.92.11-3.17.12-4 .12a12.7 12.7 0 01-1.78-.09c-.18 0-.45-.23-.45-.75 0-.74.51-.8.87-.8h1.77c.22 0 1.67 0 2.81-.07-.09-.2-.26-.63-.32-.78-1.13 0-1.85.08-3 .08-.91 0-1.16 0-1.36-.14a.8.8 0 01-.32-.71c0-.84.57-.84 1.12-.84h3.04a1.72 1.72 0 01-.07-.63zm4.35 0a.47.47 0 010-.22c0-.33.37-.39.48-.39s.35.12.51.53A4.34 4.34 0 01280 5a.43.43 0 01-.47.43c-.18 0-.31-.06-.4-.32 0-.09-.16-.52-.18-.61s-.2-.45-.22-.5zm1.36-.34a.59.59 0 010-.21c0-.37.42-.41.49-.41.25 0 .35.19.49.52a4 4 0 01.32 1.16c0 .42-.45.42-.48.42a.36.36 0 01-.36-.25c-.05-.1-.19-.58-.21-.66s-.23-.54-.25-.61zm18.62.74c0 .12-.07 1.74-.08 2-.08 1.65-.11 2.2-.11 3.51s.05 2.52 2.18 2.52 3.19-1 3.53-2.81c.13-.73.22-1.25 1-1.25.18 0 1.11 0 1.11.89a5.77 5.77 0 01-1.15 3.18 5.22 5.22 0 01-4.47 1.88c-2.06 0-3-.58-3.66-1.43-.35-.47-.61-1.05-.61-3.32 0-.8.09-5.18.1-5.3 0-.53.23-.93 1.09-.93a.92.92 0 011.07 1.06zm3.62.91a1 1 0 010-.21c0-.25.29-.39.49-.39s.33.13.59.59a3.23 3.23 0 01.41 1c0 .32-.36.42-.49.42a.4.4 0 01-.37-.27c-.05-.09-.21-.46-.28-.59s-.31-.46-.35-.55zm1.33-.52a.57.57 0 01-.06-.28c0-.25.31-.4.48-.4s.37.2.58.57a3.49 3.49 0 01.42 1.06c0 .28-.29.41-.5.41-.06 0-.22 0-.35-.25-.05-.09-.24-.5-.28-.58zM326.37 6c0-.59.38-.82.89-.82a.81.81 0 01.91.65v.55a3.78 3.78 0 011.22.36 3 3 0 011.5 2.81 3.21 3.21 0 01-3.16 3.45 3.38 3.38 0 01-2.18 1.52.91.91 0 01-.87-.9.67.67 0 01.32-.62 7.28 7.28 0 00.68-.37 2.87 2.87 0 01-1.57-2.3.79.79 0 01.87-.82c.53 0 .6.26.71.68.2.69.44.82.69 1 0-.32.07-.92.07-1.22V8.11a4.19 4.19 0 00-1.86 1.07 2.7 2.7 0 00-.92 2.11 7.38 7.38 0 00.06.89 5.76 5.76 0 01.07.68c0 .55-.48.72-.85.72-.65 0-.8-.44-.88-.85a18.81 18.81 0 01-.15-2.38 30.11 30.11 0 01.28-4.14.76.76 0 01.84-.61c.34 0 .88.11.88.72a9 9 0 01-.15 1.06c0 .2 0 .45-.08.73a4 4 0 011-1 5.48 5.48 0 011.67-.64s.01-.35.01-.47zm2.29 4.87a1.67 1.67 0 00.57-1.33 1.35 1.35 0 00-1-1.45v1.8a9.43 9.43 0 01-.07 1.2 2.26 2.26 0 00.5-.18zm19.9.93h1.61c1.59 0 4.59-.16 4.59-3.13a2.38 2.38 0 00-2.67-2.55 12.76 12.76 0 00-3.69.67 7 7 0 01-1.78.5 1 1 0 01-1-1.12c0-.73.41-.91 1.12-1.11a19.26 19.26 0 015.32-.84 5 5 0 013.69 1.3 4.47 4.47 0 011.1 3.13 4.53 4.53 0 01-3 4.54 11.81 11.81 0 01-4 .58 6.66 6.66 0 01-1.71-.14.88.88 0 01-.59-.91.89.89 0 011.01-.92z" fill="none" stroke="#367294" stroke-linecap="round" stroke-linejoin="round" stroke-width="6"/><path d="M274.38 4c0-.72.8-.84 1.11-.84.68 0 .77.3 1.06 1.3.24 0 1.3-.18 1.52-.18s.76 0 .76.86-.5.81-1.77.94c.15.39.25.61.32.79.79-.08 1.4-.14 1.92-.21a2.94 2.94 0 01.64-.08.74.74 0 01.75.83.76.76 0 01-.69.8 15.61 15.61 0 01-1.77.21 6.67 6.67 0 00.92 1.31 1 1 0 01.26.66 1 1 0 01-1 1 1.93 1.93 0 01-.54-.13 9.26 9.26 0 00-3.25-.57c-1.79 0-2.05.6-2.05.91 0 .85 1.71.92 2.54.92a12.68 12.68 0 002.93-.36A4.24 4.24 0 01279 12a.84.84 0 01.82.93c0 .62-.35.84-.87 1a12.43 12.43 0 01-3.47.41c-1.71 0-4.88-.12-4.88-2.53 0-2.1 2.37-2.52 4-2.52a7.86 7.86 0 012 .21 6.21 6.21 0 01-.53-.89c-2.92.11-3.17.12-4 .12a12.7 12.7 0 01-1.78-.09c-.18 0-.45-.23-.45-.75 0-.74.51-.8.87-.8h1.77c.22 0 1.67 0 2.81-.07-.09-.2-.26-.63-.32-.78-1.13 0-1.85.08-3 .08-.91 0-1.16 0-1.36-.14a.8.8 0 01-.32-.71c0-.84.57-.84 1.12-.84h3.04a1.72 1.72 0 01-.07-.63zm4.35 0a.47.47 0 010-.22c0-.33.37-.39.48-.39s.35.12.51.53A4.34 4.34 0 01280 5a.43.43 0 01-.47.43c-.18 0-.31-.06-.4-.32 0-.09-.16-.52-.18-.61s-.2-.45-.22-.5zm1.36-.34a.59.59 0 010-.21c0-.37.42-.41.49-.41.25 0 .35.19.49.52a4 4 0 01.32 1.16c0 .42-.45.42-.48.42a.36.36 0 01-.36-.25c-.05-.1-.19-.58-.21-.66s-.23-.54-.25-.61zm18.62.74c0 .12-.07 1.74-.08 2-.08 1.65-.11 2.2-.11 3.51s.05 2.52 2.18 2.52 3.19-1 3.53-2.81c.13-.73.22-1.25 1-1.25.18 0 1.11 0 1.11.89a5.77 5.77 0 01-1.15 3.18 5.22 5.22 0 01-4.47 1.88c-2.06 0-3-.58-3.66-1.43-.35-.47-.61-1.05-.61-3.32 0-.8.09-5.18.1-5.3 0-.53.23-.93 1.09-.93a.92.92 0 011.07 1.06zm3.62.91a1 1 0 010-.21c0-.25.29-.39.49-.39s.33.13.59.59a3.23 3.23 0 01.41 1c0 .32-.36.42-.49.42a.4.4 0 01-.37-.27c-.05-.09-.21-.46-.28-.59s-.31-.46-.35-.55zm1.33-.52a.57.57 0 01-.06-.28c0-.25.31-.4.48-.4s.37.2.58.57a3.49 3.49 0 01.42 1.06c0 .28-.29.41-.5.41-.06 0-.22 0-.35-.25-.05-.09-.24-.5-.28-.58zM326.37 6c0-.59.38-.82.89-.82a.81.81 0 01.91.65v.55a3.78 3.78 0 011.22.36 3 3 0 011.5 2.81 3.21 3.21 0 01-3.16 3.45 3.38 3.38 0 01-2.18 1.52.91.91 0 01-.87-.9.67.67 0 01.32-.62 7.28 7.28 0 00.68-.37 2.87 2.87 0 01-1.57-2.3.79.79 0 01.87-.82c.53 0 .6.26.71.68.2.69.44.82.69 1 0-.32.07-.92.07-1.22V8.11a4.19 4.19 0 00-1.86 1.07 2.7 2.7 0 00-.92 2.11 7.38 7.38 0 00.06.89 5.76 5.76 0 01.07.68c0 .55-.48.72-.85.72-.65 0-.8-.44-.88-.85a18.81 18.81 0 01-.15-2.38 30.11 30.11 0 01.28-4.14.76.76 0 01.84-.61c.34 0 .88.11.88.72a9 9 0 01-.15 1.06c0 .2 0 .45-.08.73a4 4 0 011-1 5.48 5.48 0 011.67-.64s.01-.35.01-.47zm2.29 4.87a1.67 1.67 0 00.57-1.33 1.35 1.35 0 00-1-1.45v1.8a9.43 9.43 0 01-.07 1.2 2.26 2.26 0 00.5-.18zm19.9.93h1.61c1.59 0 4.59-.16 4.59-3.13a2.38 2.38 0 00-2.67-2.55 12.76 12.76 0 00-3.69.67 7 7 0 01-1.78.5 1 1 0 01-1-1.12c0-.73.41-.91 1.12-1.11a19.26 19.26 0 015.32-.84 5 5 0 013.69 1.3 4.47 4.47 0 011.1 3.13 4.53 4.53 0 01-3 4.54 11.81 11.81 0 01-4 .58 6.66 6.66 0 01-1.71-.14.88.88 0 01-.59-.91.89.89 0 011.01-.92z" fill="#fff"/><g fill="#367294"><path d="M406.24 27.09a12.2 12.2 0 000-2.79c-.93-.17-1.86-.33-2.61-.52a9.88 9.88 0 00-.77-2.34c.49-.6 1.15-1.28 1.8-2a12.5 12.5 0 00-1.61-2.21c-.85.41-1.7.82-2.42 1.11a9.85 9.85 0 00-2-1.45c.05-.78.19-1.71.32-2.64a12.79 12.79 0 00-2.6-.86c-.44.84-.89 1.67-1.31 2.33a8.8 8.8 0 00-2.51 0c-.42-.66-.87-1.49-1.31-2.33a12.5 12.5 0 00-2.59.86c.13.93.26 1.86.31 2.64a10.14 10.14 0 00-2 1.45c-.72-.29-1.57-.7-2.41-1.11a12.55 12.55 0 00-1.62 2.21c.65.68 1.31 1.36 1.8 2a10.36 10.36 0 00-.77 2.34c-.75.19-1.68.35-2.61.52a12.2 12.2 0 000 2.79c.93.17 1.86.33 2.61.52a10.12 10.12 0 00.77 2.33c-.49.6-1.15 1.29-1.8 2a12.93 12.93 0 001.62 2.21c.84-.41 1.69-.83 2.41-1.11a10.14 10.14 0 002 1.45c-.05.77-.18 1.71-.31 2.64a11.91 11.91 0 002.59.85c.44-.83.89-1.67 1.31-2.32a9.88 9.88 0 002.51 0c.42.65.87 1.49 1.31 2.32a11.91 11.91 0 002.65-.88c-.12-.93-.26-1.87-.31-2.64a9.85 9.85 0 002-1.45c.72.28 1.57.7 2.42 1.11a12.88 12.88 0 001.61-2.21c-.65-.68-1.31-1.37-1.8-2a9.66 9.66 0 00.77-2.33c.69-.16 1.62-.32 2.55-.49zm-12.44 1.74a3.14 3.14 0 113.13-3.14 3.14 3.14 0 01-3.13 3.14zm38.68 32.5a23.18 23.18 0 000-6.79 45.37 45.37 0 01-5-1.58 18 18 0 00-1.67-4 43.33 43.33 0 012.42-4.7 23.16 23.16 0 00-4.69-4.69 41.53 41.53 0 01-4.73 2.43 18.44 18.44 0 00-4-1.67 43.77 43.77 0 01-1.58-5 23.24 23.24 0 00-6.8 0 45.84 45.84 0 01-1.58 5 18.23 18.23 0 00-4 1.67 41.53 41.53 0 01-4.69-2.42 23.16 23.16 0 00-4.69 4.69 41.41 41.41 0 012.41 4.7 17.55 17.55 0 00-1.66 4 46.05 46.05 0 01-5 1.58 23.18 23.18 0 000 6.79 46.05 46.05 0 015 1.58 17.55 17.55 0 001.66 4 41.41 41.41 0 01-2.41 4.7 23.16 23.16 0 004.69 4.69 41.53 41.53 0 014.69-2.42 18.23 18.23 0 004 1.67 45.84 45.84 0 011.58 5 22.36 22.36 0 006.8 0 43.77 43.77 0 011.58-5 18.44 18.44 0 004-1.67 41.53 41.53 0 014.69 2.42 23.16 23.16 0 004.69-4.69 43.33 43.33 0 01-2.42-4.7 18 18 0 001.67-4 45.37 45.37 0 015.04-1.59zm-22.67 5.77a9.17 9.17 0 119.19-9.16 9.17 9.17 0 01-9.19 9.16zm10.43-37.49h-2V18.07h-12.03v-2h14.03z"/><path d="M406.33 19.33a2.26 2.26 0 112.25-2.26 2.26 2.26 0 01-2.25 2.26zM417 29.5a2.26 2.26 0 102.25-2.26A2.26 2.26 0 00417 29.5z"/><path d="M426.63 34.58h-2v-9.63h-13.36V11.59h2v11.36h13.36z"/><circle cx="412.27" cy="11.7" r="2.26" transform="rotate(-67.5 412.274 11.694)"/><circle cx="425.63" cy="34.47" r="2.26" transform="rotate(-67.5 425.634 34.464)"/><path d="M387.32 70.95l-.2-1.99 6.64-.67V47.7h-18.24V29.87h33.33v2h-31.33V45.7h18.24v24.4z"/><path d="M408.74 28.61a2.26 2.26 0 11-2.26 2.26 2.26 2.26 0 012.26-2.26zM387.1 67.7a2.26 2.26 0 102.47 2 2.25 2.25 0 00-2.47-2z"/></g></svg>